<svg width="120" height="120" viewBox="0 0 120 120" fill="none" xmlns="http://www.w3.org/2000/svg">
<mask id="mask0_7_372" style="mask-type:alpha" maskUnits="userSpaceOnUse" x="0" y="0" width="120" height="120">
<rect x="120" width="120" height="120" rx="40" transform="rotate(90 120 0)" fill="#D9D9D9"/>
</mask>
<g mask="url(#mask0_7_372)">
<rect x="119.5" y="0.5" width="119" height="119" rx="39.5" transform="rotate(90 119.5 0.5)" stroke="#E2E2E2"/>
<path d="M44 72.5H29V71.5C32.5 71.5 34.5 68.9 34.5 66.5V29C34.5 26.2 31.5 24.5 29 24.5V23.5H44V24.5C42 24.5 39 25.8 39 29V66.5C39 70.5 41.5 71.5 44 71.5V72.5Z" fill="url(#paint0_linear_7_372)"/>
<path d="M57.5 28C55.9 30.4 46.1667 42.3333 41.5 48L71.5 79C77.5 84.5 84.5 84 91 83.5V82.5H86.5C81.5 82.5 77.5 79.5 72 74C67.6 69.6 52.8333 53.8333 46 46.5C50.3333 41.5 59.6 30.8 62 28C64.4 25.2 68 24.5 69.5 24.5V23.5H55.5V24.5C56.8333 24.6667 59.1 25.6 57.5 28Z" fill="url(#paint1_linear_7_372)"/>
<path d="M69 96.5C49.8 96.5 52.5 76 57.5 71C58.3 70.2 58.5 71 58 71.5C56.8333 73.3333 55 76 55 82C55 87 59.4359 94 68.5 94C75.7513 94 79.5214 88.3333 80.5 85.5L85 86C85.1667 86.5 84.6 88.4 81 92C77.4 95.6 71.5 96.5 69 96.5Z" fill="url(#paint2_linear_7_372)"/>
<path d="M80.5 69.5C85.7 74.7 86 79.3333 85.5 81C83.8333 80.6667 81 79 81 79C81 79 80.5 75 76 71C69 64 58.5 61 58.5 51.5C58.5 46 63.5 41 69.5 41H80V49H79C79 45 74.5 42.5 71 42.5C67.5 42.5 62 44 62 50.5C62 57 74 63 80.5 69.5Z" fill="url(#paint3_linear_7_372)"/>
</g>
<defs>
<linearGradient id="paint0_linear_7_372" x1="25.5" y1="17.5" x2="77.5" y2="110" gradientUnits="userSpaceOnUse">
<stop stop-color="#DDC8A9"/>
<stop offset="0.28125" stop-color="#CCC0AD"/>
<stop offset="0.385417" stop-color="#EAE9E7"/>
<stop offset="0.666667" stop-color="#CCC0AD"/>
<stop offset="1" stop-color="#DDC8A9"/>
</linearGradient>
<linearGradient id="paint1_linear_7_372" x1="25.5" y1="17.5" x2="77.5" y2="110" gradientUnits="userSpaceOnUse">
<stop stop-color="#DDC8A9"/>
<stop offset="0.28125" stop-color="#CCC0AD"/>
<stop offset="0.385417" stop-color="#EAE9E7"/>
<stop offset="0.666667" stop-color="#CCC0AD"/>
<stop offset="1" stop-color="#DDC8A9"/>
</linearGradient>
<linearGradient id="paint2_linear_7_372" x1="25.5" y1="17.5" x2="77.5" y2="110" gradientUnits="userSpaceOnUse">
<stop stop-color="#DDC8A9"/>
<stop offset="0.28125" stop-color="#CCC0AD"/>
<stop offset="0.385417" stop-color="#EAE9E7"/>
<stop offset="0.666667" stop-color="#CCC0AD"/>
<stop offset="1" stop-color="#DDC8A9"/>
</linearGradient>
<linearGradient id="paint3_linear_7_372" x1="25.5" y1="17.5" x2="77.5" y2="110" gradientUnits="userSpaceOnUse">
<stop stop-color="#DDC8A9"/>
<stop offset="0.28125" stop-color="#CCC0AD"/>
<stop offset="0.385417" stop-color="#EAE9E7"/>
<stop offset="0.666667" stop-color="#CCC0AD"/>
<stop offset="1" stop-color="#DDC8A9"/>
</linearGradient>
</defs>
</svg>
