<svg width="20" height="20" viewBox="0 0 20 20" fill="none" xmlns="http://www.w3.org/2000/svg">
<path d="M6.32324 16.9545C7.40812 18.833 9.4296 20 11.5989 20C14.9581 20 17.691 17.267 17.691 13.9078V9.13791C17.691 8.28229 16.995 7.58619 16.1393 7.58619C15.7986 7.58619 15.4832 7.69654 15.227 7.88342C15.0528 7.21717 14.4457 6.72412 13.7255 6.72412C13.3653 6.72412 13.0332 6.84756 12.7696 7.05436C12.552 6.4599 11.9807 6.03447 11.3118 6.03447C10.993 6.03447 10.6964 6.13111 10.4497 6.29654V3.27584C10.4497 2.42021 9.75359 1.72412 8.89796 1.72412C8.04234 1.72412 7.34624 2.42021 7.34624 3.27584V11.5025C7.34624 11.6083 7.28429 11.7054 7.18835 11.75C7.0591 11.8101 6.90804 11.7624 6.83675 11.639L5.80207 9.84689C5.50273 9.32846 5.01945 8.95756 4.44117 8.8026C3.86281 8.64764 3.25886 8.72717 2.74042 9.0265C2.54101 9.14162 2.39831 9.32756 2.33871 9.55002C2.27914 9.77248 2.30976 10.0048 2.42492 10.2042L6.32324 16.9545ZM3.00488 9.7285C3.01175 9.70275 3.03136 9.65486 3.08519 9.62381C3.32429 9.48576 3.5896 9.41525 3.85851 9.41525C3.99324 9.41525 4.12894 9.43299 4.26261 9.46881C4.66296 9.57607 4.99753 9.83283 5.2048 10.1918L6.23949 11.9839C6.49066 12.419 7.02371 12.5872 7.47921 12.3755C7.81738 12.2181 8.03589 11.8755 8.03589 11.5026V3.27584C8.03589 2.80049 8.42261 2.41377 8.89796 2.41377C9.37331 2.41377 9.76003 2.80049 9.76003 3.27584V9.65514C9.76003 9.84557 9.91441 9.99998 10.1049 9.99998C10.2953 9.99998 10.4497 9.8456 10.4497 9.65514V7.58619C10.4497 7.11084 10.8364 6.72412 11.3118 6.72412C11.7871 6.72412 12.1739 7.11084 12.1739 7.58619V9.65514C12.1739 9.84557 12.3282 9.99998 12.5187 9.99998C12.7091 9.99998 12.8636 9.8456 12.8636 9.65514V8.27584C12.8636 7.80049 13.2503 7.41377 13.7256 7.41377C14.201 7.41377 14.5877 7.80049 14.5877 8.27584V9.82756C14.5877 10.018 14.7421 10.1724 14.9325 10.1724C15.123 10.1724 15.2774 10.018 15.2774 9.82756V9.13791C15.2774 8.66256 15.6641 8.27584 16.1394 8.27584C16.6148 8.27584 17.0015 8.66256 17.0015 9.13791V13.9078C17.0015 16.8868 14.578 19.3103 11.599 19.3103C9.67531 19.3103 7.88265 18.2755 6.92062 16.6096L3.02206 9.85932C2.99101 9.80553 2.99796 9.75424 3.00488 9.7285Z" fill="#FCB813"/>
<path d="M6.54516 5.05777C6.7093 4.96117 6.76398 4.7498 6.66738 4.58566C6.43469 4.19043 6.31172 3.7375 6.31172 3.27586C6.31172 1.8498 7.47187 0.689648 8.89793 0.689648C10.324 0.689648 11.4841 1.8498 11.4841 3.27586C11.4841 3.73922 11.3603 4.19371 11.1259 4.59012C11.0289 4.75406 11.0832 4.96555 11.2471 5.06246C11.3022 5.09504 11.3627 5.11051 11.4223 5.11051C11.5403 5.11051 11.6552 5.05 11.7195 4.94113C12.0167 4.43852 12.1738 3.86266 12.1738 3.27586C12.1738 1.46953 10.7042 0 8.89793 0C7.09164 0 5.62207 1.46953 5.62207 3.27586C5.62207 3.86043 5.77801 4.43434 6.07309 4.93555C6.16965 5.09961 6.38094 5.15445 6.54516 5.05777Z" fill="#FCB813"/>
<path d="M13.2083 3.62076H15.8241L14.7748 4.67006C14.6401 4.80471 14.6401 5.02303 14.7748 5.15771C14.8421 5.22506 14.9304 5.25873 15.0186 5.25873C15.1069 5.25873 15.1951 5.22506 15.2624 5.15771L16.9004 3.51979C17.035 3.38514 17.035 3.16682 16.9004 3.03213L15.2624 1.3942C15.1278 1.25955 14.9095 1.25955 14.7748 1.3942C14.6401 1.52885 14.6401 1.74717 14.7748 1.88186L15.8241 2.93115H13.2082C13.0178 2.93115 12.8634 3.08553 12.8634 3.276C12.8634 3.46635 13.0178 3.62076 13.2083 3.62076Z" fill="#FCB813"/>
</svg>
